# xmcd
#
# Track frame offsets:
#	150
#	21110
#	41200
#	62105
#	81772
#	103085
#	120785
#	140745
#	157337
#	172977
#	197880
#	217902
#	239797
#	259870
#
# Disc length: 3743 seconds
#
# Revision: 0
# Processed by: cddbd v1.5.2PL0 Copyright (c) Steve Scherf et al.
# Submitted via: EZCDAudioConverter 1.0.8.1
#
DISCID=cd0e9d0e
DTITLE=Mickey Taveras - Mas Romantico
DYEAR=1999
DGENRE=Salsa
TTITLE0=Historia Entre Tus Dedos
TTITLE1=Cuando Acaba el Placer
TTITLE2=Que Sera de Ti
TTITLE3=Te Perdí
TTITLE4=Cuando el Amor Se Acaba
TTITLE5=Por Qué Llora la Tarde
TTITLE6=Corazón Partío
TTITLE7=La Chica
TTITLE8=Amorcito de Mi Alma
TTITLE9=Mar de Dudas
TTITLE10=Mamá, No Se Preocupe
TTITLE11=Cuanto Amor Me Das
TTITLE12=Me Enloqueces
TTITLE13=Y Qué Me Pasa(Bonus Track)
EXTD=
EXTT0=
EXTT1=
EXTT2=
EXTT3=
EXTT4=
EXTT5=
EXTT6=
EXTT7=
EXTT8=
EXTT9=
EXTT10=
EXTT11=
EXTT12=
EXTT13=
PLAYORDER=
